<?xml version="1.0" encoding="UTF-8" standalone="no"?>
<!-- Created with Inkscape (http://www.inkscape.org/) -->

<svg
   xmlns:dc="http://purl.org/dc/elements/1.1/"
   xmlns:cc="http://creativecommons.org/ns#"
   xmlns:rdf="http://www.w3.org/1999/02/22-rdf-syntax-ns#"
   xmlns:svg="http://www.w3.org/2000/svg"
   xmlns="http://www.w3.org/2000/svg"
   xmlns:sodipodi="http://sodipodi.sourceforge.net/DTD/sodipodi-0.dtd"
   xmlns:inkscape="http://www.inkscape.org/namespaces/inkscape"
   width="210mm"
   height="297mm"
   viewBox="0 0 210 297"
   version="1.1"
   id="svg8"
   inkscape:version="0.92.4 (unknown)"
   sodipodi:docname="Sewing Machine.svg">
  <defs
     id="defs2" />
  <sodipodi:namedview
     id="base"
     pagecolor="#ffffff"
     bordercolor="#666666"
     borderopacity="1.0"
     inkscape:pageopacity="0.0"
     inkscape:pageshadow="2"
     inkscape:zoom="0.35"
     inkscape:cx="400"
     inkscape:cy="560"
     inkscape:document-units="mm"
     inkscape:current-layer="layer1"
     showgrid="false"
     inkscape:window-width="1366"
     inkscape:window-height="709"
     inkscape:window-x="0"
     inkscape:window-y="0"
     inkscape:window-maximized="1" />
  <metadata
     id="metadata5">
    <rdf:RDF>
      <cc:Work
         rdf:about="">
        <dc:format>image/svg+xml</dc:format>
        <dc:type
           rdf:resource="http://purl.org/dc/dcmitype/StillImage" />
        <dc:title></dc:title>
      </cc:Work>
    </rdf:RDF>
  </metadata>
  <g
     inkscape:label="Layer 1"
     inkscape:groupmode="layer"
     id="layer1">
    <path
       style="fill:none;fill-rule:evenodd;stroke:#000000;stroke-width:0.26458332px;stroke-linecap:butt;stroke-linejoin:miter;stroke-opacity:1"
       d="m 40.672258,115.70608 -3.96875,0.0945 -0.18899,-4.44122 c -1.45449,-1.3982 -1.84516,-0.45599 -2.45684,0 l -0.18899,-4.44122 c -1.28875,-0.41481 -2.21563,-1.55336 -4.44122,-0.0945 l -0.28349,22.96205 c 1.42733,1.52238 2.9303,1.68318 4.53572,0 l 0.28348,-4.06324 c 0.85045,0.56455 1.70089,0.84855 2.55134,0 l 0.0945,-5.00819 3.77978,0.0945 z"
       id="path887"
       inkscape:connector-curvature="0"
       sodipodi:nodetypes="ccccccccccccc" />
    <path
       style="fill:none;fill-rule:evenodd;stroke:#000000;stroke-width:0.26458332px;stroke-linecap:butt;stroke-linejoin:miter;stroke-opacity:1"
       d="m 35.922018,110.85528 -0.13364,15.368"
       id="path891"
       inkscape:connector-curvature="0" />
    <path
       style="fill:none;fill-rule:evenodd;stroke:#000000;stroke-width:0.26458332px;stroke-linecap:butt;stroke-linejoin:miter;stroke-opacity:1"
       d="m 34.117948,111.72391 -0.20045,2.53906 0.93544,0.0668 -0.26727,-3.27405 z"
       id="path893"
       inkscape:connector-curvature="0" />
    <path
       style="fill:none;fill-rule:evenodd;stroke:#000000;stroke-width:0.26458332px;stroke-linecap:butt;stroke-linejoin:miter;stroke-opacity:1"
       d="m 34.251588,117.13612 -0.13364,2.73951 h 0.60136 v -2.93996 z"
       id="path895"
       inkscape:connector-curvature="0" />
    <path
       style="fill:none;fill-rule:evenodd;stroke:#000000;stroke-width:0.26458332px;stroke-linecap:butt;stroke-linejoin:miter;stroke-opacity:1"
       d="m 34.251588,122.54833 -0.33409,3.14041 0.93544,0.40091 -0.13363,-3.54132 z"
       id="path897"
       inkscape:connector-curvature="0" />
    <path
       style="fill:#000000;fill-opacity:1;stroke:#000000;stroke-width:0.40000001;stroke-miterlimit:4;stroke-dasharray:none;stroke-dashoffset:0;stroke-opacity:1"
       d="m 38.392538,119.2826 v -1.32292 h 0.66146 c 0.50334,0 0.66185,0.0791 0.6631,0.33073 0,0.1819 0.0553,0.77721 0.12083,1.32292 l 0.11918,0.99218 h -0.78228 -0.78229 z"
       id="path918"
       inkscape:connector-curvature="0" />
    <path
       style="fill:#000000;fill-opacity:1;stroke:#000000;stroke-width:0.09999999;stroke-miterlimit:4;stroke-dasharray:none;stroke-dashoffset:0;stroke-opacity:1"
       d="m 31.952778,123.88302 v -5.46323 l 0.42524,-0.14088 c 0.92662,-0.307 0.89767,-0.48296 0.89767,5.46004 v 5.6073 h -0.66145 -0.66146 z"
       id="path920"
       inkscape:connector-curvature="0" />
    <path
       style="fill:#000000;fill-opacity:1;stroke:#000000;stroke-width:0.1;stroke-miterlimit:4;stroke-dasharray:none;stroke-dashoffset:0;stroke-opacity:1"
       d="m 34.192508,112.99402 c 0.0376,-0.63665 0.0907,-1.19491 0.11803,-1.24056 0.111,-0.18555 0.19643,0.2356 0.26125,1.28781 l 0.0684,1.1103 h -0.25802 -0.258 z"
       id="path924"
       inkscape:connector-curvature="0" />
    <path
       style="fill:#000000;fill-opacity:1;stroke:#000000;stroke-width:0.1;stroke-miterlimit:4;stroke-dasharray:none;stroke-dashoffset:0;stroke-opacity:1"
       d="m 34.560308,118.45105 c 1.6e-4,-0.7276 0.0151,-1.01277 0.033,-0.6337 0.018,0.37907 0.0177,0.97438 -2.6e-4,1.32292 -0.0182,0.34853 -0.0329,0.0384 -0.0327,-0.68922 z"
       id="path926"
       inkscape:connector-curvature="0" />
    <path
       style="fill:#000000;fill-opacity:1;stroke:#000000;stroke-width:0.1;stroke-miterlimit:4;stroke-dasharray:none;stroke-dashoffset:0;stroke-opacity:1"
       d="m 34.060568,119.32512 c 0.006,-0.32482 0.0374,-0.96648 0.0709,-1.4259 0.0606,-0.83192 0.0621,-0.83584 0.36798,-0.964 l 0.3071,-0.12869 v 1.55459 1.55459 h -0.37798 -0.37796 z m 0.51054,-0.86202 c 0,-0.95289 -0.032,-1.34616 -0.10534,-1.31804 -0.10668,0.0409 -0.22465,1.15581 -0.22566,2.13281 0,0.45573 0.0262,0.54334 0.16563,0.54334 0.15095,0 0.16613,-0.12475 0.16537,-1.35811 z"
       id="path928"
       inkscape:connector-curvature="0" />
    <path
       style="fill:#000000;fill-opacity:1;stroke:#000000;stroke-width:0.1;stroke-miterlimit:4;stroke-dasharray:none;stroke-dashoffset:0;stroke-opacity:1"
       d="m 34.051118,119.32512 c 0,-0.3768 0.028,-1.03815 0.0616,-1.46967 0.0573,-0.7366 0.0772,-0.79296 0.32546,-0.92132 0.14542,-0.0752 0.28776,-0.13672 0.31634,-0.13672 0.0286,0 0.0519,0.72287 0.0519,1.60639 v 1.6064 h -0.37798 -0.37796 v -0.68508 z m 0.47046,-0.85602 c 0,-0.77205 -0.0337,-1.19554 -0.0862,-1.11265 -0.10695,0.16893 -0.23982,2.22274 -0.15291,2.36336 0.16791,0.27167 0.24038,-0.10754 0.23906,-1.25071 z"
       id="path930"
       inkscape:connector-curvature="0" />
    <path
       style="fill:#000000;fill-opacity:1;stroke:#000000;stroke-width:0.1;stroke-miterlimit:4;stroke-dasharray:none;stroke-dashoffset:0;stroke-opacity:1"
       d="m 34.070568,118.58694 c 0.0481,-1.49805 0.0805,-1.60572 0.52332,-1.73852 l 0.21261,-0.0638 v 1.61277 1.61277 h -0.39081 -0.39082 z m 0.44294,-0.13589 c 0.003,-0.55651 -0.0288,-0.88668 -0.0755,-0.8032 -0.098,0.17527 -0.20497,1.94638 -0.12253,2.02882 0.12404,0.12404 0.19436,-0.31132 0.19802,-1.22562 z"
       id="path932"
       inkscape:connector-curvature="0" />
    <path
       style="fill:#000000;fill-opacity:1;stroke:#000000;stroke-width:0.1;stroke-miterlimit:4;stroke-dasharray:none;stroke-dashoffset:0;stroke-opacity:1"
       d="m 34.015848,119.04164 c 0.0713,-1.64695 0.12017,-1.94372 0.34594,-2.10184 0.42797,-0.29977 0.44471,-0.24464 0.44471,1.464 v 1.6064 h -0.41629 -0.41632 z m 0.50173,-0.61979 c 0.003,-0.31162 -0.0303,-0.47955 -0.0891,-0.44327 -0.0527,0.0326 -0.0897,0.42163 -0.0836,0.87965 0.009,0.69186 0.0233,0.76169 0.089,0.44327 0.043,-0.20789 0.0806,-0.60373 0.0836,-0.87965 z"
       id="path934"
       inkscape:connector-curvature="0" />
    <path
       style="fill:#000000;fill-opacity:1;stroke:#000000;stroke-width:0.1;stroke-miterlimit:4;stroke-dasharray:none;stroke-dashoffset:0;stroke-opacity:1"
       d="m 33.962028,119.61378 c 0.003,-0.22373 0.0378,-0.86227 0.0766,-1.41899 0.0739,-1.05982 0.21519,-1.39738 0.5847,-1.39738 0.14125,0 0.17481,0.12831 0.22864,0.87406 0.0347,0.48074 0.0493,1.19299 0.0325,1.58278 l -0.0307,0.7087 -0.44884,0.0288 -0.44888,0.0288 z m 0.49176,-0.90287 c 0.0282,-0.22088 0.0127,-0.4016 -0.0342,-0.4016 -0.047,0 -0.0855,0.19844 -0.0855,0.44097 0,0.52786 0.0494,0.51161 0.11975,-0.0394 z"
       id="path936"
       inkscape:connector-curvature="0" />
    <path
       style="fill:#000000;fill-opacity:1;stroke:#000000;stroke-width:0.1;stroke-miterlimit:4;stroke-dasharray:none;stroke-dashoffset:0;stroke-opacity:1"
       d="m 33.990898,118.74297 c 0.0734,-1.46293 0.16857,-1.82737 0.49871,-1.91024 0.12716,-0.0319 0.26112,-0.0282 0.29769,0.008 0.0365,0.0364 0.0799,0.76441 0.0964,1.61775 l 0.03,1.55153 h -0.49321 -0.49318 z"
       id="path938"
       inkscape:connector-curvature="0" />
    <path
       style="fill:#000000;fill-opacity:1;stroke:#000000;stroke-width:0.1;stroke-miterlimit:4;stroke-dasharray:none;stroke-dashoffset:0;stroke-opacity:1"
       d="m 34.289428,125.64621 c -0.16534,-0.12089 -0.16878,-0.1942 -0.061,-1.29929 0.0629,-0.64414 0.14047,-1.27747 0.17251,-1.4074 0.0581,-0.23572 0.0584,-0.23561 0.1262,0.0473 0.0951,0.39658 0.10703,2.78757 0.014,2.78757 -0.042,0 -0.15529,-0.0577 -0.25165,-0.12812 z"
       id="path940"
       inkscape:connector-curvature="0" />
    <path
       style="fill:#ffffff;fill-opacity:1;stroke:#000000;stroke-width:0.2;stroke-miterlimit:4;stroke-dasharray:none;stroke-dashoffset:0;stroke-opacity:1"
       d="m 35.172648,110.20324 c 0.17786,-0.16913 0.3146,-0.50141 0.66146,0 v 64.0784 h -0.66146 z"
       id="rect942"
       inkscape:connector-curvature="0"
       sodipodi:nodetypes="ccccc" />
    <path
       style="fill:#000000;fill-rule:evenodd;stroke:#000000;stroke-width:0.26458332px;stroke-linecap:butt;stroke-linejoin:miter;stroke-opacity:1"
       d="m 65.940638,154.84895 -0.60135,-1.5368 c -3.12157,-3.69341 -5.80132,-5.58825 -6.86368,-19.0629 0.17319,-3.02416 0.41836,-5.47256 0.94493,-5.66965 0.80982,-1.32189 1.87334,-2.45351 3.68527,-3.02381 l 33.82887,-0.28348 c 1.29518,0.46871 2.64927,0.87851 3.212812,2.07887 v 9.6384 l 2.83482,2.74032 h 3.87425 l 3.76636,-0.13134 v -3.8754 l 2.07134,-1.06909 -0.46772,-6.48128 -1.20271,-0.46773 -0.33409,-20.24566 -6.18061,-0.33409 c -1.92296,6.47536 -4.19495,5.97009 -6.347642,7.85104 l -46.77293,-7.18544 c -7.42669,-0.27664 -10.66841,3.63168 -11.81176,9.63839 l 2.64583,18.70983 -3.1183,10.48884 v 7.55952 z"
       id="path826"
       inkscape:connector-curvature="0"
       sodipodi:nodetypes="cccccccccccccccccccccccc" />
    <g
       id="g1598"
       transform="translate(-384.35584,148.71317)">
      <path
         inkscape:connector-curvature="0"
         id="path828"
         d="m 394.95355,5.7919742 195.03571,0.09449 0.18899,1.322917 -195.3192,-0.09449 z"
         style="fill:#ffffff;fill-rule:evenodd;stroke:#000000;stroke-width:0.26458332px;stroke-linecap:butt;stroke-linejoin:miter;stroke-opacity:1" />
      <path
         inkscape:connector-curvature="0"
         id="path830"
         d="m 394.98576,7.1471242 -1.5119,2.598586 0.85044,0.3779758 197.11458,-0.04725 -1.13393,-3.0710558 z"
         style="fill:#ffffff;fill-rule:evenodd;stroke:#000000;stroke-width:0.26458332px;stroke-linecap:butt;stroke-linejoin:miter;stroke-opacity:1" />
    </g>
    <path
       style="fill:#ffffff;fill-rule:evenodd;stroke:none;stroke-width:0.1;stroke-linecap:butt;stroke-linejoin:miter;stroke-miterlimit:4;stroke-dasharray:none;stroke-opacity:1"
       d="m 53.872818,129.29413 0.0945,19.98312 -8.31547,0.0658 c 0.90318,-2.74015 1.11594,-5.73085 1.32291,-8.99315 l 0.47247,7.9375 c 1.94379,-3.5671 3.61911,-8.14972 4.06325,-18.50937 z"
       id="path866"
       inkscape:connector-curvature="0"
       sodipodi:nodetypes="ccccccc" />
    <path
       style="fill:#ffffff;fill-opacity:1;stroke:#000000;stroke-width:0.09999998;stroke-miterlimit:4;stroke-dasharray:none;stroke-dashoffset:0;stroke-opacity:1"
       d="m 51.829358,112.74284 a 7.9178594,8.0849028 0 0 0 -7.91786,8.08477 7.9178594,8.0849028 0 0 0 7.91786,8.08478 7.9178594,8.0849028 0 0 0 2.49236,-0.42168 c -4.49272,-0.10506 -8.48195,-2.27159 -8.91212,-6.60476 -0.49214,-4.95731 3.16981,-8.41711 7.98452,-8.08478 2.69621,0.1861 4.55172,2.43116 5.96605,4.56096 a 7.9178594,8.0849028 0 0 0 -7.53081,-5.61929 z"
       id="path868"
       inkscape:connector-curvature="0" />
    <path
       style="fill:#ffffff;fill-rule:evenodd;stroke:#ffffff;stroke-width:0.26499999;stroke-linecap:butt;stroke-linejoin:miter;stroke-miterlimit:4;stroke-dasharray:none;stroke-opacity:1"
       d="m 104.19582,138.55106 -1.87089,-2.63929 -0.13363,-1.50339 -0.70158,0.0668 0.0334,2.07134 z"
       id="path966"
       inkscape:connector-curvature="0" />
    <g
       id="g1034"
       transform="translate(-84.668349,141.079)">
      <rect
         y="-1.5400627"
         x="190.96407"
         height="11.960311"
         width="2.0045214"
         id="rect968"
         style="fill:#ffffff;fill-opacity:1;stroke:#000000;stroke-width:0.2;stroke-miterlimit:4;stroke-dasharray:none;stroke-dashoffset:0;stroke-opacity:1" />
      <rect
         y="5.7764406"
         x="190.96408"
         height="4.4767652"
         width="2.0045214"
         id="rect968-7"
         style="fill:#ffffff;fill-opacity:1;stroke:#000000;stroke-width:0.2;stroke-miterlimit:4;stroke-dasharray:none;stroke-dashoffset:0;stroke-opacity:1" />
      <rect
         y="7.1127882"
         x="192.9686"
         height="1.1358961"
         width="0.86862588"
         id="rect968-7-2"
         style="fill:#ffffff;fill-opacity:1;stroke:#000000;stroke-width:0.2;stroke-miterlimit:4;stroke-dasharray:none;stroke-dashoffset:0;stroke-opacity:1" />
      <rect
         y="6.4780226"
         x="193.90404"
         height="2.1381569"
         width="0.66817373"
         id="rect968-7-2-1"
         style="fill:#ffffff;fill-opacity:1;stroke:#000000;stroke-width:0.2;stroke-miterlimit:4;stroke-dasharray:none;stroke-dashoffset:0;stroke-opacity:1" />
    </g>
    <g
       id="g1045"
       transform="translate(-104.71379,137.46693)">
      <path
         sodipodi:nodetypes="cccccc"
         inkscape:connector-curvature="0"
         id="path1036"
         d="m 197.16183,17.250371 c 1.32292,-0.908241 2.64583,-1.830123 3.96875,-3.354538 1.08226,-1.99708 2.15949,-4.0445075 3.1183,-7.276042 0.65818,-1.1850763 1.39483,-1.8993569 2.55134,-0.094494 l 5.05543,7.181548 1.08668,1.275666"
         style="fill:none;fill-rule:evenodd;stroke:#000000;stroke-width:0.26458332px;stroke-linecap:butt;stroke-linejoin:miter;stroke-opacity:1" />
      <path
         sodipodi:nodetypes="ccc"
         inkscape:connector-curvature="0"
         id="path1038"
         d="m 206.98921,11.155505 c 3.36247,2.730104 7.04906,4.858266 11.29204,5.953125 l 4.86644,0.04725"
         style="fill:none;fill-rule:evenodd;stroke:#000000;stroke-width:0.26458332px;stroke-linecap:butt;stroke-linejoin:miter;stroke-opacity:1" />
      <path
         inkscape:connector-curvature="0"
         id="path1040"
         d="m 197.02009,17.297619 28.20647,0.236235"
         style="fill:none;fill-rule:evenodd;stroke:#000000;stroke-width:0.26458332px;stroke-linecap:butt;stroke-linejoin:miter;stroke-opacity:1" />
    </g>
    <path
       style="fill:#ffffff;fill-opacity:1;stroke:none;stroke-width:0.2;stroke-miterlimit:4;stroke-dasharray:none;stroke-dashoffset:0;stroke-opacity:1"
       d="m 102.85127,154.19959 c -8.999352,-0.13534 -9.329212,0.48825 -8.696522,0.0638 2.15884,-1.44821 3.79134,-4.22827 5.25558,-8.44474 0.776412,-2.23578 1.342322,-2.93907 1.961212,-2.43739 0.59954,0.48598 6.60314,8.67484 6.44871,8.83112 2.6e-4,0.0294 -1.68674,-0.74708 -2.67341,-1.79528 -2.40996,-1.72074 -2.22344,-1.92048 -2.22344,-1.57087 0,0.83772 5.02516,4.01363 8.43937,5.24009 0.81809,0.29387 -0.64983,0.0421 -0.95218,0.018 -0.30232,-0.0241 -2.27479,0.17468 -7.55932,0.0952 z"
       id="path1049"
       inkscape:connector-curvature="0"
       sodipodi:nodetypes="ccccccsccsc" />
    <path
       style="fill:none;fill-rule:evenodd;stroke:#000000;stroke-width:0.26458332px;stroke-linecap:butt;stroke-linejoin:miter;stroke-opacity:1"
       d="m 109.16214,107.59219 -2.48535,0.19477 -0.0624,-3.30729 h 2.55846 z"
       id="path916"
       inkscape:connector-curvature="0"
       sodipodi:nodetypes="ccccc" />
    <path
       style="fill:none;fill-rule:evenodd;stroke:#000000;stroke-width:0.16500001;stroke-linecap:butt;stroke-linejoin:miter;stroke-miterlimit:4;stroke-dasharray:none;stroke-opacity:1"
       d="m 108.36163,104.60448 c -0.25259,1.17968 -0.42995,2.50976 -0.99841,3.05768"
       id="path919"
       inkscape:connector-curvature="0"
       sodipodi:nodetypes="cc" />
    <path
       style="fill:#000000;fill-rule:evenodd;stroke:#000000;stroke-width:0.26458332px;stroke-linecap:butt;stroke-linejoin:miter;stroke-opacity:1"
       d="m 108.77546,104.33717 -1.96105,-0.0527 -0.0464,-0.71271 h 2.01444 z"
       id="path916-0"
       inkscape:connector-curvature="0"
       sodipodi:nodetypes="ccccc" />
    <path
       style="fill:none;fill-rule:evenodd;stroke:#000000;stroke-width:0.26499999;stroke-linecap:butt;stroke-linejoin:miter;stroke-miterlimit:4;stroke-dasharray:none;stroke-opacity:1"
       d="m 109.06822,103.34116 -2.48029,0.0135 -0.0622,-0.71271 h 2.55285 z"
       id="path916-0-5"
       inkscape:connector-curvature="0"
       sodipodi:nodetypes="ccccc" />
    <g
       id="g998"
       transform="translate(-175.29405,179.72006)">
      <rect
         y="-72.293434"
         x="282.55502"
         height="31.575275"
         width="0.56161559"
         id="rect963"
         style="fill:#ffffff;fill-opacity:1;stroke:#ffffff;stroke-width:0;stroke-miterlimit:4;stroke-dasharray:none;stroke-dashoffset:0;stroke-opacity:1" />
      <rect
         y="-50.452831"
         x="281.5878"
         height="2.7456768"
         width="1.0608294"
         id="rect963-0"
         style="fill:#ffffff;fill-opacity:1;stroke:#ffffff;stroke-width:0;stroke-miterlimit:4;stroke-dasharray:none;stroke-dashoffset:0;stroke-opacity:1" />
      <rect
         y="-54.384132"
         x="281.77502"
         height="3.9937112"
         width="1.0608295"
         id="rect963-0-1"
         style="fill:#ffffff;fill-opacity:1;stroke:#ffffff;stroke-width:0;stroke-miterlimit:4;stroke-dasharray:none;stroke-dashoffset:0;stroke-opacity:1" />
    </g>
    <rect
       style="fill:none;fill-opacity:1;stroke:#ffffff;stroke-width:0;stroke-miterlimit:4;stroke-dasharray:none;stroke-dashoffset:0;stroke-opacity:1"
       id="rect1000"
       width="6.7069526"
       height="8.6484385"
       x="46.54287"
       y="98.519188" />
    <rect
       style="fill:none;fill-opacity:1;stroke:#000000;stroke-width:0.2;stroke-miterlimit:4;stroke-dasharray:none;stroke-dashoffset:0;stroke-opacity:1"
       id="rect1000-5"
       width="6.3325419"
       height="8.6484385"
       x="46.755547"
       y="98.461372"
       inkscape:transform-center-x="-1.4998124"
       inkscape:transform-center-y="-1.7649874" />
    <rect
       style="fill:none;fill-opacity:1;stroke:#000000;stroke-width:0.20000002;stroke-miterlimit:4;stroke-dasharray:none;stroke-dashoffset:0;stroke-opacity:1"
       id="rect1000-5-7"
       width="7.2061667"
       height="0.66101706"
       x="46.440239"
       y="107.24398"
       inkscape:transform-center-x="-1.7067395"
       inkscape:transform-center-y="-0.13490147" />
    <rect
       style="fill:none;fill-opacity:1;stroke:#000000;stroke-width:0.20000002;stroke-miterlimit:4;stroke-dasharray:none;stroke-dashoffset:0;stroke-opacity:1"
       id="rect1000-5-7-3"
       width="7.2061667"
       height="0.66101706"
       x="46.348198"
       y="97.681694"
       inkscape:transform-center-x="-1.7067395"
       inkscape:transform-center-y="-0.13490147" />
    <path
       style="fill:none;fill-rule:evenodd;stroke:#000000;stroke-width:0.1;stroke-linecap:butt;stroke-linejoin:miter;stroke-miterlimit:4;stroke-dasharray:none;stroke-opacity:1"
       d="m 46.887708,106.86519 h 3.12009"
       id="path1053-9-8"
       inkscape:connector-curvature="0" />
    <path
       style="fill:none;fill-rule:evenodd;stroke:#000000;stroke-width:0.1;stroke-linecap:butt;stroke-linejoin:miter;stroke-miterlimit:4;stroke-dasharray:none;stroke-opacity:1"
       d="m 46.856518,106.48658 h 3.12007"
       id="path1053-8-9-95"
       inkscape:connector-curvature="0" />
    <path
       style="fill:none;fill-rule:evenodd;stroke:#000000;stroke-width:0.1;stroke-linecap:butt;stroke-linejoin:miter;stroke-miterlimit:4;stroke-dasharray:none;stroke-opacity:1"
       d="m 46.723908,106.10369 h 3.74409"
       id="path1053-7-0"
       inkscape:connector-curvature="0" />
    <path
       style="fill:none;fill-rule:evenodd;stroke:#000000;stroke-width:0.1;stroke-linecap:butt;stroke-linejoin:miter;stroke-miterlimit:4;stroke-dasharray:none;stroke-opacity:1"
       d="m 46.692698,105.72507 h 4.05611"
       id="path1053-8-3-9"
       inkscape:connector-curvature="0" />
    <path
       style="fill:none;fill-rule:evenodd;stroke:#000000;stroke-width:0.1;stroke-linecap:butt;stroke-linejoin:miter;stroke-miterlimit:4;stroke-dasharray:none;stroke-opacity:1"
       d="m 46.801918,105.3436 h 4.27451"
       id="path1053-9-2-1"
       inkscape:connector-curvature="0" />
    <path
       style="fill:none;fill-rule:evenodd;stroke:#000000;stroke-width:0.09999999;stroke-linecap:butt;stroke-linejoin:miter;stroke-miterlimit:4;stroke-dasharray:none;stroke-opacity:1"
       d="m 46.770698,104.96499 h 4.24331"
       id="path1053-8-9-9-9"
       inkscape:connector-curvature="0" />
    <path
       style="fill:none;fill-rule:evenodd;stroke:#000000;stroke-width:0.1;stroke-linecap:butt;stroke-linejoin:miter;stroke-miterlimit:4;stroke-dasharray:none;stroke-opacity:1"
       d="m 46.747298,104.48601 h 3.8689"
       id="path1053-74-2"
       inkscape:connector-curvature="0" />
    <path
       style="fill:none;fill-rule:evenodd;stroke:#000000;stroke-width:0.1;stroke-linecap:butt;stroke-linejoin:miter;stroke-miterlimit:4;stroke-dasharray:none;stroke-opacity:1"
       d="m 46.716098,104.1074 h 3.12008"
       id="path1053-8-1-8"
       inkscape:connector-curvature="0" />
    <path
       style="fill:none;fill-rule:evenodd;stroke:#000000;stroke-width:0.1;stroke-linecap:butt;stroke-linejoin:miter;stroke-miterlimit:4;stroke-dasharray:none;stroke-opacity:1"
       d="m 46.825308,103.72593 h 3.12008"
       id="path1053-9-8-0"
       inkscape:connector-curvature="0" />
    <path
       style="fill:none;fill-rule:evenodd;stroke:#000000;stroke-width:0.1;stroke-linecap:butt;stroke-linejoin:miter;stroke-miterlimit:4;stroke-dasharray:none;stroke-opacity:1"
       d="m 46.794108,103.34732 h 3.12007"
       id="path1053-8-9-95-5"
       inkscape:connector-curvature="0" />
    <path
       style="fill:none;fill-rule:evenodd;stroke:#000000;stroke-width:0.1;stroke-linecap:butt;stroke-linejoin:miter;stroke-miterlimit:4;stroke-dasharray:none;stroke-opacity:1"
       d="m 46.661498,102.96442 h 3.99371"
       id="path1053-7-0-8"
       inkscape:connector-curvature="0" />
    <path
       style="fill:none;fill-rule:evenodd;stroke:#000000;stroke-width:0.1;stroke-linecap:butt;stroke-linejoin:miter;stroke-miterlimit:4;stroke-dasharray:none;stroke-opacity:1"
       d="m 46.630298,102.58581 h 3.74409"
       id="path1053-8-3-9-1"
       inkscape:connector-curvature="0" />
    <path
       style="fill:none;fill-rule:evenodd;stroke:#000000;stroke-width:0.1;stroke-linecap:butt;stroke-linejoin:miter;stroke-miterlimit:4;stroke-dasharray:none;stroke-opacity:1"
       d="m 46.739498,102.20434 h 3.12008"
       id="path1053-9-2-1-5"
       inkscape:connector-curvature="0" />
    <path
       style="fill:none;fill-rule:evenodd;stroke:#000000;stroke-width:0.1;stroke-linecap:butt;stroke-linejoin:miter;stroke-miterlimit:4;stroke-dasharray:none;stroke-opacity:1"
       d="m 46.708298,101.82573 h 3.12008"
       id="path1053-8-9-9-9-3"
       inkscape:connector-curvature="0" />
    <path
       style="fill:none;fill-rule:evenodd;stroke:#000000;stroke-width:0.1;stroke-linecap:butt;stroke-linejoin:miter;stroke-miterlimit:4;stroke-dasharray:none;stroke-opacity:1"
       d="m 46.809708,101.53701 h 3.12008"
       id="path1053-74-1"
       inkscape:connector-curvature="0" />
    <path
       style="fill:none;fill-rule:evenodd;stroke:#000000;stroke-width:0.1;stroke-linecap:butt;stroke-linejoin:miter;stroke-miterlimit:4;stroke-dasharray:none;stroke-opacity:1"
       d="m 46.778508,101.1584 h 3.12008"
       id="path1053-8-1-86"
       inkscape:connector-curvature="0" />
    <path
       style="fill:none;fill-rule:evenodd;stroke:#000000;stroke-width:0.1;stroke-linecap:butt;stroke-linejoin:miter;stroke-miterlimit:4;stroke-dasharray:none;stroke-opacity:1"
       d="m 46.887708,100.77693 h 3.12009"
       id="path1053-9-8-8"
       inkscape:connector-curvature="0" />
    <path
       style="fill:none;fill-rule:evenodd;stroke:#000000;stroke-width:0.1;stroke-linecap:butt;stroke-linejoin:miter;stroke-miterlimit:4;stroke-dasharray:none;stroke-opacity:1"
       d="m 46.856518,100.39832 h 3.12007"
       id="path1053-8-9-95-6"
       inkscape:connector-curvature="0" />
    <path
       style="fill:none;fill-rule:evenodd;stroke:#000000;stroke-width:0.1;stroke-linecap:butt;stroke-linejoin:miter;stroke-miterlimit:4;stroke-dasharray:none;stroke-opacity:1"
       d="m 46.723918,100.01542 h 4.11851"
       id="path1053-7-0-9"
       inkscape:connector-curvature="0" />
    <path
       style="fill:none;fill-rule:evenodd;stroke:#000000;stroke-width:0.1;stroke-linecap:butt;stroke-linejoin:miter;stroke-miterlimit:4;stroke-dasharray:none;stroke-opacity:1"
       d="m 46.692708,99.63681 h 3.12008"
       id="path1053-8-3-9-6"
       inkscape:connector-curvature="0" />
    <path
       style="fill:none;fill-rule:evenodd;stroke:#000000;stroke-width:0.1;stroke-linecap:butt;stroke-linejoin:miter;stroke-miterlimit:4;stroke-dasharray:none;stroke-opacity:1"
       d="m 46.801908,99.25534 h 4.14971"
       id="path1053-9-2-1-50"
       inkscape:connector-curvature="0" />
    <path
       style="fill:none;fill-rule:evenodd;stroke:#000000;stroke-width:0.1;stroke-linecap:butt;stroke-linejoin:miter;stroke-miterlimit:4;stroke-dasharray:none;stroke-opacity:1"
       d="m 46.770708,98.87673 h 3.12008"
       id="path1053-8-9-9-9-5"
       inkscape:connector-curvature="0" />
    <path
       style="fill:none;fill-rule:evenodd;stroke:#000000;stroke-width:0.1;stroke-linecap:butt;stroke-linejoin:miter;stroke-miterlimit:4;stroke-dasharray:none;stroke-opacity:1"
       d="m 53.133418,102.34656 h -1.59632"
       id="path1053-9-8-0-0"
       inkscape:connector-curvature="0" />
    <path
       style="fill:none;fill-rule:evenodd;stroke:#000000;stroke-width:0.1;stroke-linecap:butt;stroke-linejoin:miter;stroke-miterlimit:4;stroke-dasharray:none;stroke-opacity:1"
       d="m 53.149378,101.96795 h -1.59631"
       id="path1053-8-9-95-5-5"
       inkscape:connector-curvature="0" />
    <path
       style="fill:none;fill-rule:evenodd;stroke:#000000;stroke-width:0.1;stroke-linecap:butt;stroke-linejoin:miter;stroke-miterlimit:4;stroke-dasharray:none;stroke-opacity:1"
       d="m 53.217218,101.58505 h -2.04329"
       id="path1053-7-0-8-5"
       inkscape:connector-curvature="0" />
    <path
       style="fill:none;fill-rule:evenodd;stroke:#000000;stroke-width:0.1;stroke-linecap:butt;stroke-linejoin:miter;stroke-miterlimit:4;stroke-dasharray:none;stroke-opacity:1"
       d="m 53.233188,101.20644 h -1.91557"
       id="path1053-8-3-9-1-8"
       inkscape:connector-curvature="0" />
    <path
       style="fill:none;fill-rule:evenodd;stroke:#000000;stroke-width:0.16500001;stroke-linecap:butt;stroke-linejoin:miter;stroke-miterlimit:4;stroke-dasharray:none;stroke-opacity:1"
       d="M 53.190118,106.24776 106.98042,104.1261"
       id="path1270"
       inkscape:connector-curvature="0" />
    <g
       id="g1475"
       transform="matrix(1,0,0,0.85029331,-378.22066,150.00268)"
       style="fill:#ffffff;stroke-width:1.08446515">
      <path
         sodipodi:nodetypes="csccscc"
         inkscape:connector-curvature="0"
         id="path832"
         d="m 522.12017,10.462762 c 0,0 0.21091,8.922161 0,12.851191 -0.12291,2.289793 -2.45684,6.425594 -2.45684,6.425594 l -122.65328,0.566965 c -1.0971,-0.929913 -3.02381,-5.203395 -3.02381,-7.748513 V 10.084786 Z"
         style="fill:#ffffff;fill-rule:evenodd;stroke:#000000;stroke-width:0.28738326;stroke-linecap:butt;stroke-linejoin:miter;stroke-miterlimit:4;stroke-dasharray:none;stroke-opacity:1" />
      <path
         inkscape:connector-curvature="0"
         id="path1294"
         d="m 394.63663,13.051134 c 1.34882,0 2.69764,0 4.04646,0 0.2248,0 0.45399,0.01756 0.67442,0 0.34853,-0.02777 0.66308,-0.106573 1.01161,-0.134345 0.22043,-0.01756 0.45394,0.01756 0.67442,0 0.34853,-0.02777 0.65972,-0.114318 1.01161,-0.134346 0.44508,-0.02533 0.90532,0.02945 1.34879,0 0.24791,-0.01646 0.42795,-0.114707 0.67441,-0.134345 0.5511,-0.04391 1.12403,0 1.68602,0 0.8992,0 1.79845,0 2.69765,0 0.67441,0 1.34883,0 2.02323,0 0.1124,0 0.2248,0 0.33721,0 0.1124,0 0.23666,-0.02003 0.33717,0 0.33269,0.06627 0.90074,0.539167 1.01161,0.671727 0.0358,0.04248 -0.0503,0.09429 0,0.134345 0.0711,0.05665 0.28695,0.07426 0.33721,0.134346 0.0711,0.08497 -0.0711,0.183723 0,0.268691 0.0503,0.06008 0.22484,0.08956 0.33721,0.134345 0.22482,0.08956 0.48367,0.167361 0.67441,0.26869 0.1508,0.08011 0.19781,0.185374 0.3372,0.268691 0.0882,0.05269 0.2248,0.08956 0.33721,0.134346 0.1124,0.04478 0.19502,0.106022 0.33721,0.134345 0.10051,0.02003 0.23057,-0.01416 0.3372,0 0.23845,0.03166 0.43597,0.10268 0.67441,0.134345 0.21328,0.02832 0.44962,0 0.67441,0 0.78683,0 1.57362,0 2.36044,0 0.2155,0 1.92594,0.01938 2.02321,0 0.47766,-0.09515 1.19586,-0.554559 1.68603,-0.671727 0.30478,-0.07286 0.68159,-0.08175 1.01161,-0.134345 0.23337,-0.03719 0.44104,-0.09716 0.6744,-0.134345 0.33002,-0.0526 0.6816,-0.08175 1.01163,-0.134345 0.23337,-0.03719 0.43057,-0.110059 0.6744,-0.134346 0.21808,-0.02172 0.44959,0 0.67442,0 0.11239,0 0.23665,0.02003 0.3372,0 0.14215,-0.02832 0.19501,-0.106023 0.33721,-0.134345 0.10051,-0.02003 0.23666,0.02003 0.3372,0 0.14216,-0.02832 0.1864,-0.114319 0.33721,-0.134346 0.21324,-0.02832 0.46113,0.02832 0.67441,0 0.15081,-0.02003 0.19501,-0.106022 0.33721,-0.134345 0.10051,-0.02003 0.23666,0.02003 0.33717,0 0.14219,-0.02832 0.19505,-0.106023 0.33721,-0.134345 0.20109,-0.04006 0.47334,0.04005 0.6744,0 0.14219,-0.02832 0.19505,-0.106023 0.33721,-0.134346 0.10254,-0.02042 1.11599,0 1.34882,0 0.8992,0 1.79844,0 2.69764,0 1.57362,0 3.14723,0 4.72085,0 7.41852,0 14.83701,0 22.2555,0"
         style="fill:#ffffff;fill-rule:evenodd;stroke:#000000;stroke-width:0.17893676;stroke-linecap:butt;stroke-linejoin:miter;stroke-miterlimit:4;stroke-dasharray:none;stroke-opacity:1" />
      <path
         inkscape:connector-curvature="0"
         id="path1296"
         d="m 393.62501,16.275423 c 1.67599,-0.166929 0.8854,-0.134345 2.36044,-0.134345 0.33721,0 0.68096,0.02635 1.01161,0 0.24646,-0.01964 0.42797,-0.114707 0.67442,-0.134346 0.3624,-0.02888 1.82832,0 2.36043,0 0.2248,0 0.4496,0 0.67442,0 0.33721,0 0.6985,-0.04989 1.01161,0 0.29517,0.04704 0.4018,0.203524 0.67438,0.268691 0.30482,0.07286 0.69371,0.07101 1.01162,0.134345 0.227,0.04522 1.26543,0.369523 1.68602,0.403037 0.33067,0.02635 0.67441,0 1.01162,0 0.33721,0 0.67441,0 1.01161,0 1.46121,0 2.92244,0 4.38365,0 1.57364,0 3.14726,0 4.72087,0 0.33721,0 0.67442,0 1.01162,0 0.22479,0 0.4563,0.02172 0.67441,0 2.20146,-0.219272 -1.27402,-0.07214 1.68603,-0.268691 0.33259,-0.02209 0.67438,0 1.01159,0 0.78681,0 1.57364,0 2.36043,0 2.24803,0 4.49605,0 6.74407,0"
         style="fill:#ffffff;fill-rule:evenodd;stroke:#000000;stroke-width:0.17893676;stroke-linecap:butt;stroke-linejoin:miter;stroke-miterlimit:4;stroke-dasharray:none;stroke-opacity:1" />
      <path
         inkscape:connector-curvature="0"
         id="path1298"
         d="m 479.27491,14.528933 c 12.81374,0 25.62753,0 38.4413,0"
         style="fill:#ffffff;fill-rule:evenodd;stroke:#000000;stroke-width:0.17893676;stroke-linecap:butt;stroke-linejoin:miter;stroke-miterlimit:4;stroke-dasharray:none;stroke-opacity:1" />
      <path
         inkscape:connector-curvature="0"
         id="path1300"
         d="m 494.45221,12.782443 c 0.78892,-0.01452 1.28304,-0.198831 1.93747,-0.403035 0.1435,-0.04478 0.31708,-0.06354 0.43054,-0.134346 0.11346,-0.07081 0.10182,-0.197885 0.21527,-0.268691 0.0137,-0.0086 0.82099,-0.252007 0.8611,-0.268691 0.0844,-0.03513 0.1245,-0.106022 0.21527,-0.134345 0.0656,-0.02044 0.54887,0 0.6458,0 0.29175,0 1.36448,-0.02963 1.50691,0 0.0963,0.02003 0.12451,0.106023 0.21528,0.134345 0.0642,0.02003 0.14566,-0.01086 0.21527,0 0.22014,0.03435 0.42332,0.106573 0.64582,0.134346 0.14073,0.01756 0.28704,0 0.43055,0 0.21528,0 0.43056,0 0.64582,0 0.71757,0 1.43516,0 2.15272,0 0.57407,0 1.14813,0 1.72219,0 0.097,0 0.58031,0.02044 0.64581,0 0.0908,-0.02832 0.12451,-0.106023 0.21528,-0.134346 0.0642,-0.02003 0.15109,0.02003 0.21528,0 0.0908,-0.02832 0.1245,-0.106022 0.21527,-0.134345 0.0566,-0.01767 0.7485,0 0.8611,0 0.71756,0 1.43514,0 2.15271,0 1.36341,0 2.72679,0 4.0902,0 0.64583,0 1.29162,0 1.93744,0 0.0718,0 0.14353,0 0.21527,0 0.0718,0 0.16456,0.03166 0.21528,0 0.0508,-0.03166 -0.0507,-0.10268 0,-0.134345 0.0508,-0.03166 0.14354,0 0.21527,0 0.0718,0 0.14351,0 0.21527,0 0.20857,0 1.16329,-0.0267 1.29165,0 0.30444,0.06333 0.56312,0.194312 0.86109,0.26869 0.21069,0.0526 0.42567,0.1 0.64582,0.134346 0.1465,0.02286 0.52808,-0.03673 0.64582,0 0.0908,0.02832 0.12451,0.106023 0.21526,0.134345 0.0566,0.01766 0.74852,0 0.86109,0"
         style="fill:#ffffff;fill-rule:evenodd;stroke:#000000;stroke-width:0.17893676;stroke-linecap:butt;stroke-linejoin:miter;stroke-miterlimit:4;stroke-dasharray:none;stroke-opacity:1" />
      <path
         inkscape:connector-curvature="0"
         id="path1304"
         d="m 454.99621,18.290604 c 0.38064,-0.124405 2.04007,0.0524 2.69761,0 0.34855,-0.02777 0.67442,-0.08956 1.01162,-0.134346 0.33721,-0.04478 0.69372,-0.07101 1.01162,-0.134345 0.36247,-0.07221 0.64914,-0.196482 1.01161,-0.268691 0.31791,-0.06333 0.67442,-0.08956 1.01163,-0.134345 0.33719,-0.04478 0.66307,-0.106573 1.01161,-0.134345 0.22043,-0.01757 0.45631,0.02172 0.67442,0 0.2438,-0.02429 0.44103,-0.09716 0.6744,-0.134346 0.33002,-0.0526 0.68156,-0.08175 1.01159,-0.134345 0.23336,-0.03719 0.43059,-0.110059 0.6744,-0.134345 0.21811,-0.02172 0.45635,0.02172 0.67442,0 0.24384,-0.02429 0.44962,-0.08956 0.67441,-0.134346 0.3372,-0.04478 0.66307,-0.106573 1.01161,-0.134345 0.33067,-0.02635 0.67442,0 1.01162,0 0.67441,0 1.34882,0 2.02323,0 0.67442,0 1.34882,0 2.02324,0 0.22478,0 0.46113,-0.02832 0.67438,0 1.37245,0.182262 0.94463,0.519583 2.02322,0.806072 0.0936,0.02484 0.2367,-0.02003 0.33721,0 0.14219,0.02832 0.22484,0.08956 0.33721,0.134345 0.33721,0 0.68095,-0.02635 1.01161,0 0.4929,0.03927 0.87194,0.20536 1.34883,0.268691 0.35833,0.04758 0.99049,-0.04759 1.34882,0 0.15081,0.02003 0.19501,0.106023 0.33721,0.134345 0.0969,0.01931 2.16041,0 2.36039,0 1.34884,0 2.69766,0 4.04648,0 2.36043,0 4.72083,0 7.08128,0 0.78683,0 1.57362,0 2.36043,0 0.2248,0 0.46113,0.02832 0.67442,0 0.2248,-0.04478 0.44958,-0.08956 0.67442,-0.134345 0.22478,0 0.46113,0.02832 0.6744,0 0.1508,-0.02003 0.1864,-0.114318 0.33721,-0.134346 0.18125,-0.02407 1.0633,0 1.34882,0 1.23641,0 2.47281,0 3.70922,0"
         style="fill:#ffffff;fill-rule:evenodd;stroke:#000000;stroke-width:0.17893676;stroke-linecap:butt;stroke-linejoin:miter;stroke-miterlimit:4;stroke-dasharray:none;stroke-opacity:1" />
      <path
         inkscape:connector-curvature="0"
         id="path1306"
         d="m 460.05427,12.094288 c 5.28287,0 10.56575,0 15.84858,0 0.89921,0 1.79845,0 2.69765,0 0.17633,0 1.26015,-0.01767 1.34882,0 0.70394,0.140228 -0.0297,0.397153 0.67442,0.537381 0.10051,0.02003 0.23054,-0.01416 0.3372,0 0.23841,0.03166 0.43597,0.10268 0.67441,0.134345 0.18248,0.02424 1.23394,0 1.34878,0 0.89924,0 1.79846,0 2.69766,0 0.12388,0 1.33524,-0.0054 1.34882,0 0.0794,0.03166 -0.0503,0.09429 0,0.134346 0.0711,0.05664 0.22479,0.08956 0.33721,0.134345 0.11239,0.04478 0.195,0.106023 0.3372,0.134346 0.0886,0.01766 1.1725,0 1.34882,0"
         style="fill:#ffffff;fill-rule:evenodd;stroke:#000000;stroke-width:0.17893676;stroke-linecap:butt;stroke-linejoin:miter;stroke-miterlimit:4;stroke-dasharray:none;stroke-opacity:1" />
      <path
         inkscape:connector-curvature="0"
         id="path1308"
         d="m 410.14804,11.699466 c 0.55832,-0.333649 1.3746,-0.0482 2.0232,-0.134345 0.15081,-0.02003 0.1864,-0.114319 0.33721,-0.134345 0.3199,-0.04248 0.67442,0 1.01162,0 0.8992,0 1.79844,0 2.69764,0 3.03485,0 6.06968,0 9.10452,0 1.124,0 2.24802,0 3.37206,0 0.23284,0 1.24627,-0.02042 1.34878,0 0.14219,0.02832 0.1864,0.114317 0.33721,0.134345 0.3199,0.04248 0.69171,-0.04248 1.01161,0 0.23846,0.03166 0.43596,0.102679 0.67442,0.134345 0.35832,0.04758 0.99049,-0.04758 1.34882,0 0.23844,0.03166 0.43596,0.10268 0.67442,0.134345 0.30346,0.0403 0.7081,-0.0403 1.01161,0 0.23844,0.03166 0.43596,0.10268 0.67441,0.134346 0.19023,0.02526 0.79001,0 1.01162,0 0.56199,0 1.12399,0 1.68598,0"
         style="fill:#ffffff;fill-rule:evenodd;stroke:#000000;stroke-width:0.17893676;stroke-linecap:butt;stroke-linejoin:miter;stroke-miterlimit:4;stroke-dasharray:none;stroke-opacity:1" />
      <path
         inkscape:connector-curvature="0"
         id="path1310"
         d="m 430.71749,15.469351 c 1.476,-0.441035 0.95141,-0.244708 1.68603,-0.537382 0.11239,-0.04478 0.1864,-0.114318 0.33719,-0.134345 0.21329,-0.02832 0.46113,0.02832 0.67442,0 0.25585,-0.03398 1.03893,-0.475646 1.34882,-0.537382 0.10051,-0.02003 0.25772,0.03166 0.33721,0 0.0794,-0.03166 -0.0794,-0.102679 0,-0.134345 0.0752,-0.02996 1.48546,0.02663 1.68603,0 0.1508,-0.02003 0.18297,-0.118985 0.3372,-0.134345 0.2922,-0.02911 1.92497,0 2.36041,0 0.56203,0 1.12402,0 1.68603,0 0.22478,0 0.44962,0 0.6744,0 0.1124,0 0.23058,-0.01416 0.33721,0 1.22247,0.162347 0.23998,0.06374 1.01161,0.26869 0.62252,0.165349 1.4007,0.237689 2.02324,0.403037 0.13226,0.03513 0.1864,0.114318 0.33721,0.134345 0.21324,0.02832 0.46113,-0.02832 0.6744,0 0.15081,0.02003 0.1864,0.114318 0.33721,0.134345 0.21324,0.02832 0.45631,-0.02172 0.67438,0 0.24384,0.02428 0.436,0.10268 0.67441,0.134346 0.29925,0.03974 1.46523,-0.04398 1.68603,0 0.14219,0.02832 0.19501,0.106023 0.3372,0.134345 0.12199,0.02429 1.45147,0 1.68602,0 0.23455,0 1.56408,0.02429 1.68603,0 0.14216,-0.02832 0.19502,-0.106023 0.33721,-0.134345 0.10051,-0.02003 0.23666,0.02003 0.33721,0 0.80744,-0.160852 -0.21253,-0.268691 0.67442,-0.268691"
         style="fill:#ffffff;fill-rule:evenodd;stroke:#000000;stroke-width:0.17893676;stroke-linecap:butt;stroke-linejoin:miter;stroke-miterlimit:4;stroke-dasharray:none;stroke-opacity:1" />
      <path
         inkscape:connector-curvature="0"
         id="path1312"
         d="m 425.65943,19.231021 c 0.0511,-0.114936 2.24532,0.06007 2.69765,0 0.2384,-0.03166 0.43597,-0.102679 0.67438,-0.134344 0.10672,-0.01417 0.23668,0.02003 0.33721,0 0.14218,-0.02832 0.18135,-0.121925 0.33719,-0.134346 0.44091,-0.03513 0.90376,0.02533 1.34882,0 0.70376,-0.04005 1.32202,-0.222129 2.02324,-0.26869 0.33263,-0.02209 0.67898,0.02208 1.01163,0 0.35061,-0.02328 0.661,-0.111066 1.01161,-0.134346 0.55434,-0.03681 1.14079,0.05431 1.68603,0 0.2438,-0.02428 0.43057,-0.110059 0.67441,-0.134346 0.26522,-0.02642 1.67255,0 2.0232,0 1.46123,0 2.92244,0 4.38367,0 1.01161,0 2.02324,0 3.03481,0 0.17636,0 1.26018,-0.01766 1.34883,0 0.14219,0.02832 0.20495,0.09921 0.3372,0.134346 0.20913,0.05555 0.44962,0.08956 0.67441,0.134346 0.22483,0.04478 0.43057,0.110058 0.67441,0.134344 0.2181,0.02172 0.46117,-0.02832 0.67441,0 0.15081,0.02003 0.18641,0.114319 0.33721,0.134346 1.53505,0 0.0193,-0.06333 1.01161,0.134346 0.0871,0.01737 1.78422,0 2.02324,0 0.1124,0 0.23666,-0.02003 0.33721,0 0.14214,0.02832 0.19501,0.106023 0.33721,0.134344 0.10051,0.02003 0.22478,0 0.33719,0 0.1124,0 0.2248,0 0.33721,0 0.67438,0 1.34879,0 2.0232,0"
         style="fill:#ffffff;fill-rule:evenodd;stroke:#000000;stroke-width:0.17893676;stroke-linecap:butt;stroke-linejoin:miter;stroke-miterlimit:4;stroke-dasharray:none;stroke-opacity:1" />
      <path
         inkscape:connector-curvature="0"
         id="path1314"
         d="m 512.36512,18.290604 c 0.60305,0.134037 1.03551,-0.392151 1.61883,-0.537382 0.14786,-0.03681 0.29978,0 0.44967,0 0.11992,0 0.23984,0 0.35975,0 0.65953,0 1.31905,0 1.97857,0 0.68949,0 1.379,0 2.0685,0 0.23983,0 0.47966,0 0.71948,0 0.0899,0 0.18256,-0.03258 0.26981,0 0.065,0.02428 0.11992,0.08956 0.17987,0.134345 0.11992,0.08956 0.23255,0.20536 0.35974,0.268691 0.0853,0.04248 0.18255,-0.03258 0.26981,0 0.065,0.02428 0.11414,0.114707 0.17987,0.134346 0.0882,0.02635 0.17987,0 0.2698,0 0.11991,0 0.23983,0 0.35974,0 0.0424,0 0.4456,-0.0061 0.44967,0 0.0212,0.03166 -0.0134,0.09429 0,0.134345 0.10768,0.321703 0.17987,-0.08466 0.17987,0.268692"
         style="fill:#ffffff;fill-rule:evenodd;stroke:#000000;stroke-width:0.17893676;stroke-linecap:butt;stroke-linejoin:miter;stroke-miterlimit:4;stroke-dasharray:none;stroke-opacity:1" />
      <path
         inkscape:connector-curvature="0"
         id="path1294-8"
         d="m 395.77969,26.690884 c 1.53035,0 3.06071,0 4.59106,0 0.25506,0 0.51509,-0.01756 0.76519,0 0.39544,0.02777 0.75232,0.106573 1.14776,0.134346 0.25009,0.01756 0.51503,-0.01756 0.76518,0 0.39544,0.02777 0.74851,0.114318 1.14776,0.134345 0.50498,0.02533 1.02717,-0.02945 1.53032,0 0.28128,0.01646 0.48555,0.114707 0.76518,0.134345 0.62527,0.04391 1.27531,0 1.91293,0 1.02022,0 2.0405,0 3.06072,0 0.76518,0 1.53036,0 2.29553,0 0.12753,0 0.25505,0 0.38259,0 0.12753,0 0.26851,0.02003 0.38255,0 0.37747,-0.06627 1.02197,-0.539166 1.14776,-0.671727 0.0406,-0.04248 -0.0571,-0.09429 0,-0.134345 0.0807,-0.05664 0.32557,-0.07426 0.38259,-0.134345 0.0807,-0.08497 -0.0807,-0.183723 0,-0.268691 0.057,-0.06008 0.2551,-0.08956 0.3826,-0.134346 0.25508,-0.08956 0.54876,-0.16736 0.76517,-0.26869 0.1711,-0.08011 0.22444,-0.185374 0.38259,-0.268691 0.10007,-0.05269 0.25505,-0.08956 0.38259,-0.134345 0.12753,-0.04478 0.22127,-0.106023 0.38259,-0.134346 0.11404,-0.02003 0.26161,0.01416 0.38259,0 0.27054,-0.03166 0.49464,-0.102679 0.76517,-0.134345 0.24199,-0.02832 0.51014,0 0.76518,0 0.89273,0 1.78541,0 2.67812,0 0.24451,0 2.18515,-0.01938 2.29551,0 0.54195,0.09515 1.35681,0.55456 1.91295,0.671727 0.34579,0.07286 0.77332,0.08175 1.14775,0.134345 0.26478,0.03719 0.5004,0.09716 0.76517,0.134345 0.37444,0.0526 0.77333,0.08175 1.14778,0.134346 0.26478,0.03719 0.48852,0.110059 0.76517,0.134345 0.24743,0.02172 0.51009,0 0.76518,0 0.12752,0 0.2685,-0.02003 0.38259,0 0.16128,0.02832 0.22125,0.106023 0.38259,0.134346 0.11404,0.02003 0.26851,-0.02003 0.38258,0 0.1613,0.02832 0.21149,0.114318 0.3826,0.134345 0.24194,0.02832 0.52319,-0.02832 0.76517,0 0.17111,0.02003 0.22126,0.106023 0.3826,0.134345 0.11403,0.02003 0.26851,-0.02003 0.38254,0 0.16133,0.02832 0.22131,0.106023 0.3826,0.134346 0.22815,0.04005 0.53704,-0.04006 0.76516,0 0.16133,0.02832 0.2213,0.106023 0.3826,0.134345 0.11634,0.02042 1.26618,0 1.53035,0 1.02022,0 2.04049,0 3.06071,0 1.7854,0 3.5708,0 5.35621,0 8.41695,0 16.83387,0 25.25078,0"
         style="fill:#ffffff;fill-rule:evenodd;stroke:#000000;stroke-width:0.17893676;stroke-linecap:butt;stroke-linejoin:miter;stroke-miterlimit:4;stroke-dasharray:none;stroke-opacity:1" />
      <path
         inkscape:connector-curvature="0"
         id="path1296-1"
         d="m 395.2634,23.466595 c 2.0707,0.166929 1.09392,0.134346 2.91635,0.134346 0.41662,0 0.84133,-0.02635 1.24985,0 0.30451,0.01964 0.52877,0.114707 0.83326,0.134345 0.44775,0.02888 2.25891,0 2.91633,0 0.27775,0 0.55549,0 0.83326,0 0.41662,0 0.863,0.04989 1.24985,0 0.36469,-0.04704 0.49643,-0.203524 0.83321,-0.268691 0.37661,-0.07286 0.85708,-0.07101 1.24987,-0.134345 0.28046,-0.04522 1.56345,-0.369523 2.08309,-0.403036 0.40855,-0.02635 0.83324,0 1.24987,0 0.41663,0 0.83324,0 1.24986,0 1.80534,0 3.6107,0 5.41604,0 1.94425,0 3.88848,0 5.83269,0 0.41663,0 0.83326,0 1.24987,0 0.27773,0 0.56376,-0.02172 0.83324,0 2.71993,0.219272 -1.57407,0.07214 2.08311,0.26869 0.41092,0.02209 0.8332,0 1.24983,0 0.97211,0 1.94425,0 2.91634,0 2.77746,0 5.55492,0 8.33237,0"
         style="fill:#ffffff;fill-rule:evenodd;stroke:#000000;stroke-width:0.17893676;stroke-linecap:butt;stroke-linejoin:miter;stroke-miterlimit:4;stroke-dasharray:none;stroke-opacity:1" />
      <path
         inkscape:connector-curvature="0"
         id="path1298-8"
         d="m 489.40381,25.213085 c 10.77529,0 21.55062,0 32.32593,0"
         style="fill:#ffffff;fill-rule:evenodd;stroke:#000000;stroke-width:0.17893676;stroke-linecap:butt;stroke-linejoin:miter;stroke-miterlimit:4;stroke-dasharray:none;stroke-opacity:1" />
      <path
         inkscape:connector-curvature="0"
         id="path1300-9"
         d="m 504.58343,26.959575 c 0.45646,0.01452 0.74236,0.198831 1.12101,0.403036 0.083,0.04478 0.18346,0.06354 0.2491,0.134345 0.0657,0.07081 0.0589,0.197885 0.12456,0.268691 0.008,0.0086 0.47502,0.252008 0.49823,0.268691 0.0489,0.03513 0.072,0.106023 0.12455,0.134345 0.0379,0.02044 0.31757,0 0.37366,0 0.1688,0 0.78948,0.02963 0.87189,0 0.0557,-0.02003 0.072,-0.106022 0.12456,-0.134345 0.0371,-0.02003 0.0843,0.01086 0.12456,0 0.12737,-0.03434 0.24492,-0.106573 0.37366,-0.134345 0.0814,-0.01756 0.16608,0 0.24912,0 0.12456,0 0.24912,0 0.37367,0 0.41518,0 0.83037,0 1.24555,0 0.33216,0 0.66431,0 0.99645,0 0.0561,0 0.33576,-0.02044 0.37367,0 0.0525,0.02832 0.072,0.106022 0.12455,0.134345 0.0371,0.02003 0.0874,-0.02003 0.12456,0 0.0525,0.02832 0.072,0.106023 0.12456,0.134345 0.0327,0.01766 0.43308,0 0.49823,0 0.41518,0 0.83036,0 1.24555,0 0.78886,0 1.5777,0 2.36656,0 0.37368,0 0.74733,0 1.121,0 0.0415,0 0.083,0 0.12455,0 0.0415,0 0.0952,-0.03166 0.12456,0 0.0294,0.03166 -0.0293,0.10268 0,0.134346 0.0294,0.03166 0.083,0 0.12456,0 0.0415,0 0.083,0 0.12455,0 0.12068,0 0.67308,0.0267 0.74735,0 0.17614,-0.06333 0.32581,-0.194313 0.49822,-0.268691 0.1219,-0.0526 0.24629,-0.1 0.37367,-0.134345 0.0848,-0.02286 0.30554,0.03673 0.37367,0 0.0525,-0.02832 0.072,-0.106023 0.12454,-0.134346 0.0327,-0.01767 0.4331,0 0.49823,0"
         style="fill:#ffffff;fill-rule:evenodd;stroke:#000000;stroke-width:0.17893676;stroke-linecap:butt;stroke-linejoin:miter;stroke-miterlimit:4;stroke-dasharray:none;stroke-opacity:1" />
      <path
         inkscape:connector-curvature="0"
         id="path1304-8"
         d="m 465.12511,21.451415 c 0.38064,0.124404 2.04007,-0.0524 2.69761,0 0.34855,0.02777 0.67442,0.08956 1.01162,0.134345 0.33721,0.04478 0.69372,0.07101 1.01162,0.134345 0.36247,0.07221 0.64914,0.196483 1.01161,0.268691 0.31791,0.06333 0.67442,0.08956 1.01163,0.134346 0.33719,0.04478 0.66307,0.106573 1.01161,0.134345 0.22043,0.01757 0.45631,-0.02172 0.67442,0 0.2438,0.02428 0.44103,0.09716 0.6744,0.134346 0.33002,0.0526 0.68156,0.08175 1.01159,0.134344 0.23336,0.03719 0.43059,0.110059 0.6744,0.134346 0.21811,0.02172 0.45635,-0.02172 0.67442,0 0.24384,0.02428 0.44962,0.08956 0.67441,0.134345 0.3372,0.04478 0.66307,0.106573 1.01161,0.134346 0.33067,0.02635 0.67442,0 1.01162,0 0.67441,0 1.34882,0 2.02323,0 0.67442,0 1.34882,0 2.02324,0 0.22478,0 0.46113,0.02832 0.67438,0 1.37245,-0.182263 0.94463,-0.519583 2.02322,-0.806072 0.0936,-0.02484 0.2367,0.02003 0.33721,0 0.14219,-0.02832 0.22484,-0.08956 0.33721,-0.134346 0.33721,0 0.68095,0.02635 1.01161,0 0.4929,-0.03927 0.87194,-0.205359 1.34883,-0.268691 0.35833,-0.04758 0.99049,0.04759 1.34882,0 0.15081,-0.02003 0.19501,-0.106022 0.33721,-0.134345 0.0969,-0.01931 2.16041,0 2.36039,0 1.34884,0 2.69766,0 4.04648,0 2.36043,0 4.72083,0 7.08128,0 0.78683,0 1.57362,0 2.36043,0 0.2248,0 0.46113,-0.02832 0.67442,0 0.2248,0.04478 0.44958,0.08956 0.67442,0.134345 0.22478,0 0.46113,-0.02832 0.6744,0 0.1508,0.02003 0.1864,0.114318 0.33721,0.134346 0.18125,0.02407 1.0633,0 1.34882,0 1.23641,0 2.47281,0 3.70922,0"
         style="fill:#ffffff;fill-rule:evenodd;stroke:#000000;stroke-width:0.17893676;stroke-linecap:butt;stroke-linejoin:miter;stroke-miterlimit:4;stroke-dasharray:none;stroke-opacity:1" />
      <path
         inkscape:connector-curvature="0"
         id="path1306-4"
         d="m 470.18317,28.706065 c 5.28287,0 10.56575,0 15.84858,0 0.89921,0 1.79845,0 2.69765,0 0.17633,0 1.26015,0.01766 1.34882,0 0.70394,-0.140229 -0.0297,-0.397153 0.67442,-0.537382 0.10051,-0.02003 0.23054,0.01416 0.3372,0 0.23841,-0.03166 0.43597,-0.102679 0.67441,-0.134345 0.18248,-0.02424 1.23394,0 1.34878,0 0.89924,0 1.79846,0 2.69766,0 0.12388,0 1.33524,0.0054 1.34882,0 0.0794,-0.03166 -0.0503,-0.09429 0,-0.134345 0.0711,-0.05665 0.22479,-0.08956 0.33721,-0.134346 0.11239,-0.04478 0.195,-0.106023 0.3372,-0.134345 0.0886,-0.01767 1.1725,0 1.34882,0"
         style="fill:#ffffff;fill-rule:evenodd;stroke:#000000;stroke-width:0.17893676;stroke-linecap:butt;stroke-linejoin:miter;stroke-miterlimit:4;stroke-dasharray:none;stroke-opacity:1" />
      <path
         inkscape:connector-curvature="0"
         id="path1308-3"
         d="m 420.27694,28.57172 c 0.55832,0.333648 1.3746,0.0482 2.0232,0.134345 0.15081,0.02003 0.1864,0.114318 0.33721,0.134345 0.3199,0.04248 0.67442,0 1.01162,0 0.8992,0 1.79844,0 2.69764,0 3.03485,0 6.06968,0 9.10452,0 1.124,0 2.24802,0 3.37206,0 0.23284,0 1.24627,0.02042 1.34878,0 0.14219,-0.02832 0.1864,-0.114318 0.33721,-0.134345 0.3199,-0.04248 0.69171,0.04248 1.01161,0 0.23846,-0.03166 0.43596,-0.10268 0.67442,-0.134345 0.35832,-0.04758 0.99049,0.04758 1.34882,0 0.23844,-0.03166 0.43596,-0.102681 0.67442,-0.134346 0.30346,-0.0403 0.7081,0.0403 1.01161,0 0.23844,-0.03166 0.43596,-0.10268 0.67441,-0.134345 0.19023,-0.02526 0.79001,0 1.01162,0 0.56199,0 1.12399,0 1.68598,0"
         style="fill:#ffffff;fill-rule:evenodd;stroke:#000000;stroke-width:0.17893676;stroke-linecap:butt;stroke-linejoin:miter;stroke-miterlimit:4;stroke-dasharray:none;stroke-opacity:1" />
      <path
         inkscape:connector-curvature="0"
         id="path1310-8"
         d="m 440.84639,24.272667 c 1.476,0.441035 0.95141,0.244709 1.68603,0.537382 0.11239,0.04478 0.1864,0.114318 0.33719,0.134345 0.21329,0.02832 0.46113,-0.02832 0.67442,0 0.25585,0.03398 1.03893,0.475646 1.34882,0.537382 0.10051,0.02003 0.25772,-0.03166 0.33721,0 0.0794,0.03166 -0.0794,0.102679 0,0.134345 0.0752,0.02996 1.48546,-0.02663 1.68603,0 0.1508,0.02003 0.18297,0.118985 0.3372,0.134345 0.2922,0.02911 1.92497,0 2.36041,0 0.56203,0 1.12402,0 1.68603,0 0.22478,0 0.44962,0 0.6744,0 0.1124,0 0.23058,0.01416 0.33721,0 1.22247,-0.162346 0.23998,-0.06374 1.01161,-0.26869 0.62252,-0.165348 1.4007,-0.237688 2.02324,-0.403036 0.13226,-0.03513 0.1864,-0.114319 0.33721,-0.134346 0.21324,-0.02832 0.46113,0.02832 0.6744,0 0.15081,-0.02003 0.1864,-0.114318 0.33721,-0.134345 0.21324,-0.02832 0.45631,0.02172 0.67438,0 0.24384,-0.02428 0.436,-0.10268 0.67441,-0.134345 0.29925,-0.03974 1.46523,0.04398 1.68603,0 0.14219,-0.02832 0.19501,-0.106023 0.3372,-0.134346 0.12199,-0.02429 1.45147,0 1.68602,0 0.23455,0 1.56408,-0.02429 1.68603,0 0.14216,0.02832 0.19502,0.106023 0.33721,0.134346 0.10051,0.02003 0.23666,-0.02003 0.33721,0 0.80744,0.160851 -0.21253,0.26869 0.67442,0.26869"
         style="fill:#ffffff;fill-rule:evenodd;stroke:#000000;stroke-width:0.17893676;stroke-linecap:butt;stroke-linejoin:miter;stroke-miterlimit:4;stroke-dasharray:none;stroke-opacity:1" />
      <path
         inkscape:connector-curvature="0"
         id="path1312-9"
         d="m 435.78833,20.510997 c 0.0511,0.114936 2.24532,-0.06007 2.69765,0 0.2384,0.03166 0.43597,0.10268 0.67438,0.134345 0.10672,0.01417 0.23668,-0.02003 0.33721,0 0.14218,0.02832 0.18135,0.121925 0.33719,0.134345 0.44091,0.03513 0.90376,-0.02533 1.34882,0 0.70376,0.04006 1.32202,0.22213 2.02324,0.268691 0.33263,0.02209 0.67898,-0.02208 1.01163,0 0.35061,0.02328 0.661,0.111065 1.01161,0.134346 0.55434,0.03681 1.14079,-0.05431 1.68603,0 0.2438,0.02428 0.43057,0.110059 0.67441,0.134346 0.26522,0.02642 1.67255,0 2.0232,0 1.46123,0 2.92244,0 4.38367,0 1.01161,0 2.02324,0 3.03481,0 0.17636,0 1.26018,0.01766 1.34883,0 0.14219,-0.02832 0.20495,-0.09922 0.3372,-0.134346 0.20913,-0.05554 0.44962,-0.08956 0.67441,-0.134346 0.22483,-0.04478 0.43057,-0.110059 0.67441,-0.134345 0.2181,-0.02172 0.46117,0.02832 0.67441,0 0.15081,-0.02003 0.18641,-0.114319 0.33721,-0.134346 1.53505,0 0.0193,0.06333 1.01161,-0.134345 0.0871,-0.01737 1.78422,0 2.02324,0 0.1124,0 0.23666,0.02003 0.33721,0 0.14214,-0.02832 0.19501,-0.106023 0.33721,-0.134345 0.10051,-0.02003 0.22478,0 0.33719,0 0.1124,0 0.2248,0 0.33721,0 0.67438,0 1.34879,0 2.0232,0"
         style="fill:#ffffff;fill-rule:evenodd;stroke:#000000;stroke-width:0.17893676;stroke-linecap:butt;stroke-linejoin:miter;stroke-miterlimit:4;stroke-dasharray:none;stroke-opacity:1" />
    </g>
  </g>
</svg>
